{"title":"Maze.Runner.The.Scorch.Trials.2015.BRRip.720p.x264.AAC-PRiSTiNE","uid":12876078,"size":899262606,"categoryP":"video","categoryS":"hd___movies","magnet":"?xt=urn:btih:854d7a42ad62dbc2b61c64235884354e6d426660&amp;dn=Maze.Runner.The.Scorch.Trials.2015.BRRip.720p.x264.AAC-PRiSTiNE&amp;tr=udp%3A%2F%2Ftracker.leechers-paradise.org%3A6969&amp;tr=udp%3A%2F%2Fzer0day.ch%3A1337&amp;tr=udp%3A%2F%2Fopen.demonii.com%3A1337&amp;tr=udp%3A%2F%2Ftracker.coppersurfer.tk%3A6969&amp;tr=udp%3A%2F%2Fexodus.desync.com%3A6969","seeders":4,"leechers":6,"uploader":"VYTOP2PDL","files":7,"time":1448954953,"description":"Maze.Runner.The.Scorch.Trials.2015.BRRip.720p.x264.AAC-PRiSTiNE\r\n\r\n\r\nGenre: Action, Sci-Fi, Thriller \nhttp://www.imdb.com/title/tt4046784/\r\n\r\n\r\nGeneral\r\nFormat                         : MPEG-4\r\nFile size                      : 851 MiB\r\nDuration                       : 2h 11mn\r\nOverall bit rate               : 904 Kbps\r\n\r\nVideo\r\nFormat                         : AVC\r\nBit rate                       : 837 Kbps\r\nWidth                          : 1 280 pixels\r\nHeight                         : 528 pixels\r\nDisplay aspect ratio           : 2.40:1\r\nFrame rate mode                : Constant\r\nFrame rate                     : 23.976 fps\r\nBit depth                      : 8 bits\r\nStream size                    : 788 MiB (93%)\r\nWriting library                : x264\r\n\r\nAudio\r\nFormat                         : AAC\r\nBit rate mode                  : Variable\r\nBit rate                       : 63.9 Kbps\r\nChannel(s)                     : 2 channels\r\nChannel positions              : Front: L R\r\nSampling rate                  : 48.0 KHz\r\nStream size                    : 60.2 MiB (7%)\r\nLanguage                       : English\r\n \nhttp://ititli.com/lL \nhttp://ititli.com/ld \nhttp://ititli.com/l0 \nhttp://ititli.com/lA \nhttp://ititli.com/ll \nhttp://ititli.com/lm","torrent":{"xt":"urn:btih:854d7a42ad62dbc2b61c64235884354e6d426660","amp;dn":"Maze.Runner.The.Scorch.Trials.2015.BRRip.720p.x264.AAC-PRiSTiNE","amp;tr":["udp%3A%2F%2Ftracker.leechers-paradise.org%3A6969","udp%3A%2F%2Fzer0day.ch%3A1337","udp%3A%2F%2Fopen.demonii.com%3A1337","udp%3A%2F%2Ftracker.coppersurfer.tk%3A6969","udp%3A%2F%2Fexodus.desync.com%3A6969"],"infoHash":"854d7a42ad62dbc2b61c64235884354e6d426660","infoHashBuffer":{"type":"Buffer","data":[133,77,122,66,173,98,219,194,182,28,100,35,88,132,53,78,109,66,102,96]},"announce":[],"urlList":[]}}